{"glyphs":{":":{"x_min":0,"x_max":361,"ha":361,"o":"m 85 86 q 85 123 112 150 q 139 177 177 177 q 215 177 242 150 q 269 124 269 86 q 269 47 242 20 q 215 -7 177 -7 q 139 -7 112 20 q 85 47 85 86 z m 85 442 q 85 479 112 506 q 139 533 177 533 q 215 533 242 507 q 269 480 269 442 q 269 403 242 376 q 215 349 177 349 q 139 349 112 376 q 85 403 85 442 z"},"$":{"x_min":0,"x_max":634,"ha":634,"o":"m 282 464 l 282 634 q 243 628 221 605 q 199 583 199 548 q 199 517 218 498 q 236 479 282 464 z m 353 119 q 393 126 413 148 q 433 169 433 203 q 433 239 414 261 q 394 284 353 296 z m 357 22 l 357 -27 q 357 -38 360 -53 q 363 -69 369 -90 l 267 -90 q 272 -72 275 -56 q 278 -40 278 -27 l 278 21 q 233 23 188 30 q 143 36 96 46 l 107 209 q 136 167 178 144 q 220 122 278 119 l 278 318 q 174 350 124 401 q 74 453 74 529 q 74 613 128 666 q 183 720 278 730 l 278 738 q 278 753 275 766 q 273 779 268 791 l 370 791 q 364 778 361 764 q 358 750 357 734 q 389 734 425 729 q 462 725 504 716 l 485 573 q 455 604 424 619 q 393 635 357 638 l 357 442 q 460 410 510 357 q 561 304 561 229 q 561 144 506 88 q 452 32 357 22 z"},"?":{"x_min":0,"x_max":556,"ha":556,"o":"m 175 211 q 166 244 162 268 q 157 293 157 311 q 157 349 213 374 q 219 376 222 378 q 287 407 313 438 q 340 470 340 516 q 340 573 303 610 q 266 647 209 647 q 175 647 147 637 q 119 627 94 607 l 98 746 q 136 755 170 760 q 204 764 234 764 q 352 764 423 700 q 495 636 495 532 q 495 446 446 390 q 397 334 275 286 q 271 284 263 281 q 187 251 175 211 z m 92 86 q 92 123 119 150 q 146 177 184 177 q 223 177 249 150 q 276 124 276 86 q 276 47 249 20 q 222 -7 184 -7 q 146 -7 119 20 q 92 47 92 86 z"},"<":{"x_min":0,"x_max":833,"ha":833,"o":"m 704 583 l 704 476 l 268 298 l 704 120 l 704 13 l 129 250 l 129 347 z"},"'":{"x_min":0,"x_max":172,"ha":172,"o":"m 39 702 l 133 702 l 133 429 l 39 429 z"},"=":{"x_min":0,"x_max":833,"ha":833,"o":"m 124 242 l 709 242 l 709 145 l 124 145 z m 124 452 l 709 452 l 709 355 l 124 355 z"},"a":{"x_min":0,"x_max":505,"ha":505,"o":"m 299 66 l 221 -6 q 215 -6 209 -7 q 203 -7 191 -7 q 113 -7 74 25 q 34 58 34 121 q 34 186 83 227 q 132 269 299 326 l 299 334 q 299 382 274 408 q 249 434 203 434 q 179 434 151 427 q 123 420 89 406 l 111 509 q 151 521 185 526 q 219 532 247 532 q 309 532 353 510 q 396 487 420 442 q 429 426 432 397 q 436 368 436 308 l 436 132 q 436 92 443 60 q 449 27 463 0 l 299 0 z m 299 84 l 299 226 l 178 226 q 171 198 169 182 q 166 166 166 154 q 166 115 186 99 q 205 82 251 82 q 263 82 275 83 q 287 83 299 84 z"},"L":{"x_min":0,"x_max":514,"ha":514,"o":"m 58 0 q 74 42 82 90 q 90 137 90 197 l 90 560 q 90 620 82 668 q 74 715 58 757 l 280 757 q 264 715 256 668 q 248 620 248 560 l 248 113 q 316 115 385 130 q 453 145 523 172 l 467 0 z"},"3":{"x_min":0,"x_max":634,"ha":634,"o":"m 408 447 q 482 413 519 361 q 555 309 555 235 q 555 124 481 58 q 407 -8 281 -8 q 213 -8 154 11 q 96 29 47 67 l 129 223 q 147 162 185 130 q 222 99 278 99 q 337 99 371 137 q 406 175 406 239 q 406 297 362 333 q 318 368 233 377 l 359 637 l 313 637 q 201 637 142 625 q 83 613 62 586 l 62 757 l 559 757 z"},";":{"x_min":0,"x_max":361,"ha":361,"o":"m 89 442 q 89 479 116 506 q 143 533 181 533 q 219 533 246 507 q 273 480 273 442 q 273 403 246 376 q 219 349 181 349 q 143 349 116 376 q 89 403 89 442 z m 270 213 q 254 116 217 28 q 179 -60 118 -141 l 19 -141 q 62 -63 83 6 q 104 75 104 136 q 104 152 101 171 q 97 190 90 213 z"},"J":{"x_min":0,"x_max":394,"ha":394,"o":"m 146 642 q 106 642 64 636 q 23 630 -20 619 l 6 757 l 336 757 q 319 715 312 668 q 304 620 304 560 l 304 134 q 304 35 292 -12 q 280 -60 252 -94 q 228 -123 194 -141 q 159 -160 133 -160 l 128 -160 l -28 -147 q 20 -123 50 -100 q 81 -77 99 -51 q 125 -14 135 37 q 146 89 146 197 z"},"V":{"x_min":0,"x_max":704,"ha":704,"o":"m 288 0 l 98 517 q 75 579 45 639 q 14 700 -24 757 l 206 757 q 206 755 206 751 q 204 732 204 725 q 204 704 208 682 q 212 659 220 637 l 360 240 l 508 626 q 518 650 522 672 q 527 694 527 715 q 527 724 524 748 q 523 753 523 757 l 728 757 q 688 702 655 639 q 622 576 593 503 l 398 0 z"},"\"":{"x_min":0,"x_max":331,"ha":331,"o":"m 198 702 l 292 702 l 292 429 l 198 429 z m 39 702 l 133 702 l 133 429 l 39 429 z"},"7":{"x_min":0,"x_max":634,"ha":634,"o":"m 119 0 q 148 37 175 87 q 202 136 228 199 l 406 629 l 235 629 q 165 629 124 616 q 83 604 54 575 l 54 757 l 606 757 l 382 205 q 362 157 352 114 q 341 70 341 41 q 341 33 343 23 q 344 13 348 0 z"},"S":{"x_min":0,"x_max":530,"ha":530,"o":"m 95 12 l 87 201 q 122 153 160 130 q 198 107 241 107 q 283 107 307 126 q 330 145 330 178 q 330 205 313 228 q 296 250 253 278 q 241 286 218 300 q 142 348 125 364 q 81 406 63 444 q 45 482 45 532 q 45 637 112 700 q 179 764 290 764 q 322 764 361 758 q 400 751 446 738 l 442 585 q 407 617 372 633 q 336 648 298 648 q 257 648 232 625 q 208 602 208 563 q 208 501 313 438 q 338 423 352 415 q 428 368 459 323 q 491 277 491 218 q 491 115 417 54 q 343 -7 217 -7 q 185 -7 155 -2 q 125 2 95 12 z"},"}":{"x_min":0,"x_max":500,"ha":500,"o":"m 70 721 l 103 721 q 157 721 189 715 q 222 709 244 697 q 272 681 283 652 q 295 623 295 555 l 295 432 q 295 365 320 337 q 345 309 404 309 q 407 309 414 310 q 420 310 424 310 l 424 208 l 406 208 q 345 208 320 181 q 295 153 295 86 l 295 -37 q 295 -107 283 -135 q 272 -164 244 -179 q 221 -191 188 -197 q 156 -203 107 -203 q 101 -203 89 -203 q 77 -202 70 -202 l 70 -100 q 74 -100 82 -101 q 90 -101 93 -101 q 142 -101 159 -82 q 177 -63 177 -4 l 177 113 q 177 186 199 216 q 221 246 278 259 q 221 272 199 302 q 177 333 177 405 l 177 523 q 177 583 159 601 q 142 620 93 620 q 90 620 82 620 q 74 619 70 619 z"},"Z":{"x_min":0,"x_max":597,"ha":597,"o":"m 26 0 l 312 643 q 304 644 295 644 q 286 644 268 644 q 195 644 137 628 q 79 612 33 579 l 91 757 l 533 757 l 249 113 q 253 113 263 112 q 272 112 277 112 q 351 112 424 131 q 497 149 570 188 l 525 0 z"},"x":{"x_min":0,"x_max":539,"ha":539,"o":"m 205 82 q 198 71 194 60 q 191 48 191 37 q 191 28 193 19 q 196 9 200 0 l -4 0 q 17 21 39 48 q 61 75 84 107 l 193 259 l 85 418 q 83 422 77 430 q 33 495 -1 525 l 213 525 q 211 519 211 513 q 210 507 210 502 q 210 487 215 472 q 220 457 230 443 l 275 375 l 305 423 q 317 443 324 462 q 330 480 330 498 q 330 503 329 510 q 329 517 327 525 l 519 525 q 487 496 439 426 l 432 416 l 337 282 l 457 107 q 459 104 465 96 q 509 30 543 0 l 329 0 q 331 5 331 11 q 332 17 332 23 q 332 38 327 53 q 322 68 312 83 l 258 169 z"},")":{"x_min":0,"x_max":407,"ha":407,"o":"m -2 732 q 17 748 45 756 q 74 764 112 764 q 238 764 290 665 q 341 565 341 307 q 341 48 290 -51 q 238 -151 112 -151 q 74 -151 45 -143 q 17 -135 -2 -119 q 45 -114 76 -100 q 107 -86 127 -59 q 156 -20 169 61 q 181 141 181 307 q 181 473 169 553 q 156 633 127 672 q 107 699 76 713 q 45 728 -2 732 z"},"&":{"x_min":0,"x_max":921,"ha":921,"o":"m 291 415 q 322 421 339 441 q 356 460 356 490 q 356 522 337 542 q 319 561 288 561 q 258 561 239 541 q 219 521 219 490 q 219 463 237 445 q 255 426 291 415 z m 514 181 q 458 224 395 256 q 332 289 259 312 q 226 289 210 265 q 195 241 195 213 q 195 169 233 143 q 271 116 336 116 q 389 116 433 133 q 478 149 514 181 z m 581 278 q 604 336 615 391 q 627 446 627 498 q 627 506 627 514 q 626 521 625 538 q 591 537 565 531 q 539 525 518 513 l 518 628 l 866 628 l 866 513 q 838 525 808 531 q 778 537 747 538 q 746 432 729 349 q 711 267 676 202 q 737 148 796 116 q 855 83 912 72 l 787 -4 q 754 2 710 27 q 666 52 602 101 q 547 47 479 21 q 411 -5 324 -5 q 199 -5 125 52 q 52 108 52 203 q 52 254 77 294 q 102 334 155 367 q 131 389 119 416 q 107 442 107 474 q 107 550 155 595 q 203 640 284 640 q 368 640 415 602 q 462 564 462 497 q 462 458 445 428 q 428 398 393 376 q 445 358 492 333 q 539 309 581 278 z"},"_":{"x_min":0,"x_max":500,"ha":500,"o":"m 0 -136 l 500 -136 l 500 -236 l 0 -236 z"},"v":{"x_min":0,"x_max":495,"ha":495,"o":"m 194 525 q 189 510 187 497 q 185 483 185 471 q 185 453 195 415 q 196 411 197 409 l 257 187 l 328 416 q 334 435 337 454 q 340 474 340 494 q 340 503 338 522 q 338 524 338 525 l 502 525 q 482 494 465 457 q 449 420 435 377 l 315 0 l 179 0 l 55 394 q 41 438 25 469 q 10 500 -11 525 z"},"O":{"x_min":0,"x_max":863,"ha":863,"o":"m 620 140 q 644 181 656 230 q 668 279 668 335 q 668 415 641 475 q 613 535 556 581 q 517 612 464 630 q 411 647 354 647 q 334 647 312 645 q 291 642 267 637 q 234 588 218 532 q 201 477 201 414 q 201 357 222 307 q 243 257 286 210 q 330 163 384 139 q 438 115 503 115 q 536 115 565 121 q 594 127 620 140 z m 423 -7 q 355 -7 291 17 q 228 41 174 86 q 108 142 72 219 q 36 296 36 382 q 36 456 63 522 q 91 589 143 642 q 201 702 277 733 q 352 764 438 764 q 516 764 585 738 q 654 711 710 660 q 767 607 797 538 q 826 468 826 386 q 826 328 812 276 q 797 224 768 178 q 715 93 622 43 q 528 -7 423 -7 z"},"(":{"x_min":0,"x_max":407,"ha":407,"o":"m 425 -119 q 406 -135 378 -143 q 350 -151 311 -151 q 185 -151 134 -52 q 83 48 83 307 q 83 566 134 665 q 185 764 311 764 q 350 764 378 756 q 406 748 425 732 q 378 728 348 713 q 317 699 297 672 q 268 632 255 552 q 243 472 243 307 q 243 141 256 61 q 268 -20 297 -59 q 317 -86 348 -100 q 378 -114 425 -119 z"},"C":{"x_min":0,"x_max":696,"ha":696,"o":"m 642 545 q 593 594 542 619 q 490 643 436 643 q 333 643 270 570 q 207 497 207 378 q 207 256 275 182 q 342 109 454 109 q 516 109 564 134 q 613 158 655 211 l 633 38 q 579 14 522 3 q 466 -9 406 -9 q 338 -9 280 9 q 223 27 175 64 q 105 117 71 189 q 36 261 36 351 q 36 445 73 526 q 110 606 179 663 q 240 713 313 739 q 386 764 467 764 q 508 764 552 757 q 596 749 642 734 z"},"W":{"x_min":0,"x_max":917,"ha":917,"o":"m 458 384 l 337 0 l 216 0 l 66 580 q 53 628 35 673 q 17 718 -6 757 l 226 757 q 216 734 212 715 q 207 695 207 679 q 207 667 209 653 q 210 640 214 625 l 303 246 l 460 764 l 638 248 l 728 609 q 733 632 736 651 q 739 669 739 685 q 739 702 736 720 q 733 738 727 757 l 918 757 q 899 725 883 679 q 866 633 850 571 l 703 0 l 592 0 z"},"A":{"x_min":0,"x_max":734,"ha":734,"o":"m 284 326 l 443 326 q 423 401 406 469 q 390 536 375 600 q 357 537 334 470 q 312 402 284 326 z m 241 201 l 200 106 q 192 87 188 71 q 184 55 184 42 q 184 30 186 20 q 188 10 191 0 l -28 0 q 5 45 30 87 q 55 130 71 169 l 318 757 l 456 757 l 657 176 l 660 168 q 701 50 748 0 l 519 0 q 522 10 523 19 q 525 28 525 36 q 525 45 523 56 q 521 66 514 89 l 479 201 z"},"f":{"x_min":0,"x_max":310,"ha":310,"o":"m 206 444 l 206 132 q 206 93 213 61 q 220 28 234 0 l 37 0 q 51 28 58 61 q 65 94 65 132 l 65 444 l 12 444 l 65 519 q 65 639 114 698 q 162 757 261 757 q 289 757 316 753 q 344 750 372 742 l 351 621 q 336 645 318 656 q 300 668 277 668 q 241 668 224 641 q 206 614 206 559 l 206 519 l 319 519 l 319 444 z"},"Q":{"x_min":0,"x_max":888,"ha":888,"o":"m 494 -3 q 476 -4 460 -5 q 445 -6 431 -6 q 381 -6 337 5 q 292 16 253 37 q 148 94 92 183 q 36 272 36 381 q 36 456 64 523 q 92 590 145 642 q 205 701 284 733 q 362 764 451 764 q 532 764 602 738 q 673 711 731 659 q 790 606 820 535 q 850 465 850 382 q 850 281 804 200 q 758 119 667 59 q 714 -16 762 -67 q 811 -117 862 -147 l 793 -165 q 780 -168 767 -169 q 755 -171 743 -171 q 696 -171 645 -138 q 594 -105 494 -3 z m 643 141 q 671 188 685 237 q 699 286 699 338 q 699 474 608 561 q 518 648 375 648 q 355 648 330 646 q 305 643 270 638 q 230 587 212 531 q 193 475 193 407 q 193 355 216 305 q 240 254 284 209 q 330 161 390 135 q 449 110 514 110 q 548 110 581 118 q 613 125 643 141 z"},"w":{"x_min":0,"x_max":755,"ha":755,"o":"m 159 0 l 58 375 q 43 432 28 467 q 12 501 -7 525 l 192 525 q 186 504 183 489 q 180 474 180 462 q 180 448 181 437 q 183 425 185 416 l 248 145 l 338 525 l 440 525 l 528 153 l 582 397 q 589 430 591 445 q 593 459 593 471 q 593 485 590 498 q 587 511 580 525 l 758 525 q 737 499 720 458 q 703 418 690 366 l 598 0 l 461 0 l 378 314 l 304 0 z"},"-":{"x_min":0,"x_max":382,"ha":382,"o":"m 31 341 q 46 335 64 332 q 82 329 105 329 l 270 329 q 293 329 311 332 q 329 335 344 341 l 344 196 q 329 202 311 205 q 293 208 270 208 l 105 208 q 82 208 64 205 q 46 202 31 196 z"},"E":{"x_min":0,"x_max":560,"ha":560,"o":"m 58 0 q 74 42 82 90 q 90 137 90 197 l 90 560 q 90 620 82 668 q 74 715 58 757 l 487 757 l 416 609 q 382 625 341 633 q 299 642 248 643 l 248 434 l 465 434 l 384 297 q 362 313 332 322 q 301 330 262 330 l 248 330 l 248 113 q 274 112 287 111 q 300 111 310 111 q 380 111 436 121 q 493 131 538 151 l 478 0 z"},"s":{"x_min":0,"x_max":440,"ha":440,"o":"m 41 9 l 43 156 q 74 116 108 96 q 142 76 178 76 q 208 76 225 91 q 241 106 241 133 q 241 165 187 198 q 175 205 169 209 q 101 252 76 287 q 52 322 52 369 q 52 448 106 490 q 160 533 260 533 q 289 533 318 529 q 346 525 374 518 l 374 399 q 351 422 323 434 q 295 446 265 446 q 234 446 215 430 q 196 414 196 388 q 196 353 277 305 q 290 297 297 293 q 350 262 371 229 q 393 196 393 149 q 393 74 336 33 q 280 -8 176 -8 q 146 -8 112 -4 q 78 0 41 9 z"},">":{"x_min":0,"x_max":833,"ha":833,"o":"m 129 583 l 704 347 l 704 250 l 129 13 l 129 120 l 566 298 l 129 476 z"},"l":{"x_min":0,"x_max":275,"ha":275,"o":"m 207 132 q 207 93 214 61 q 221 28 235 0 l 38 0 q 52 28 59 61 q 66 94 66 132 l 66 592 q 66 630 59 663 q 52 696 38 724 q 89 729 137 737 q 185 746 231 757 q 219 714 213 664 q 207 613 207 557 z"},"8":{"x_min":0,"x_max":634,"ha":634,"o":"m 318 113 q 369 113 402 144 q 434 174 434 222 q 434 270 401 300 q 368 329 313 329 q 263 329 230 299 q 198 269 198 223 q 198 177 233 145 q 267 113 318 113 z m 321 445 q 365 445 393 474 q 422 504 422 550 q 422 599 394 628 q 366 657 319 657 q 271 657 239 627 q 207 597 207 552 q 207 505 239 475 q 271 445 321 445 z m 174 402 q 129 433 107 470 q 86 507 86 554 q 86 643 153 704 q 220 764 319 764 q 417 764 480 707 q 544 649 544 561 q 544 510 521 469 q 499 429 455 403 q 511 377 540 332 q 569 287 569 225 q 569 124 497 58 q 425 -7 312 -7 q 203 -7 134 54 q 66 115 66 211 q 66 272 93 320 q 120 368 174 402 z"},"\\":{"x_min":0,"x_max":329,"ha":329,"o":"m 394 -93 l 248 -93 q 249 -90 249 -86 q 249 -82 249 -74 q 249 -55 245 -32 q 240 -10 231 19 l 31 632 q 20 667 5 698 q -10 729 -29 757 l 117 757 q 117 754 116 750 q 116 746 116 738 q 116 719 120 697 q 125 674 134 645 l 334 32 q 345 -3 360 -34 q 375 -65 394 -93 z"},"e":{"x_min":0,"x_max":491,"ha":491,"o":"m 170 316 l 342 316 l 342 324 q 342 385 320 417 q 297 450 256 450 q 218 450 196 416 q 174 381 170 316 z m 170 243 q 172 172 206 134 q 239 96 299 96 q 329 96 363 105 q 397 114 434 131 l 394 18 q 359 5 325 -1 q 291 -7 257 -7 q 147 -7 87 62 q 28 131 28 258 q 28 385 89 458 q 150 532 255 532 q 352 532 401 470 q 449 409 449 286 q 449 269 449 260 q 449 251 448 243 z"},"b":{"x_min":0,"x_max":569,"ha":569,"o":"m 205 418 l 205 97 q 221 94 236 92 q 251 90 264 90 q 323 90 357 136 q 391 183 391 263 q 391 344 360 388 q 328 431 269 431 q 256 431 241 428 q 225 425 205 418 z m 35 0 q 49 29 57 62 q 64 95 64 132 l 64 592 q 64 631 57 664 q 50 696 35 724 q 85 729 133 737 q 181 746 228 757 q 217 716 211 666 q 205 615 205 557 l 205 434 q 225 455 260 496 q 269 505 273 510 q 290 518 307 522 q 325 526 344 526 q 428 526 481 467 q 533 408 533 312 q 533 171 448 86 q 363 0 223 0 z"},"%":{"x_min":0,"x_max":972,"ha":972,"o":"m 673 215 q 673 158 696 120 q 719 82 752 82 q 785 84 805 118 q 825 153 826 212 q 824 272 802 309 q 780 346 746 348 q 716 346 695 309 q 674 271 673 215 z m 742 437 q 831 437 885 377 q 939 316 939 219 q 939 119 884 56 q 828 -7 742 -7 q 663 -7 612 56 q 561 120 561 221 q 561 310 613 374 q 666 437 742 437 z m 739 757 q 719 733 703 710 q 687 687 676 666 l 388 85 q 380 70 374 49 q 367 27 361 0 l 232 0 q 250 20 265 43 q 280 65 293 91 l 581 672 q 592 694 599 715 q 606 736 610 757 z m 145 543 q 145 485 168 448 q 190 410 223 410 q 257 410 277 445 q 298 480 298 540 q 298 601 276 638 q 254 675 218 675 q 187 675 166 638 q 145 602 145 543 z m 214 765 q 302 765 357 705 q 411 644 411 546 q 411 447 356 384 q 301 321 217 321 q 136 321 85 382 q 33 442 33 539 q 33 634 85 700 q 137 765 214 765 z"},"m":{"x_min":0,"x_max":836,"ha":836,"o":"m 206 416 l 206 132 q 206 93 213 61 q 220 28 234 0 l 37 0 q 51 28 58 61 q 65 94 65 132 l 65 394 q 65 432 58 464 q 51 497 37 525 l 206 525 l 206 435 q 240 485 275 509 q 310 532 350 532 q 404 532 438 506 q 471 480 480 432 q 522 489 554 511 q 586 533 626 533 q 655 533 683 522 q 710 511 727 492 q 749 468 758 438 q 767 407 767 336 l 767 132 q 767 92 774 60 q 780 27 794 0 l 598 0 q 612 27 618 60 q 625 93 625 132 l 625 326 q 625 389 607 415 q 589 440 548 440 q 531 440 516 433 q 501 427 487 413 l 487 132 q 487 92 494 60 q 500 27 514 0 l 318 0 q 332 27 338 60 q 345 93 345 132 l 345 326 q 345 390 328 415 q 310 440 269 440 q 251 440 236 434 q 220 428 206 416 z"},"#":{"x_min":0,"x_max":769,"ha":769,"o":"m 346 414 l 303 295 l 426 295 l 468 414 z m 346 715 l 454 715 l 383 512 l 501 512 l 573 715 l 681 715 l 609 512 l 747 512 l 711 414 l 574 414 l 533 296 l 675 296 l 640 198 l 498 198 l 426 -5 l 318 -5 l 390 198 l 271 198 l 198 -5 l 91 -5 l 162 198 l 22 198 l 59 296 l 197 296 l 239 414 l 93 414 l 129 512 l 274 512 z"},",":{"x_min":0,"x_max":317,"ha":317,"o":"m 247 213 q 231 116 194 28 q 156 -60 96 -141 l -4 -141 q 39 -62 61 7 q 82 76 82 136 q 82 152 79 171 q 75 190 68 213 z"},"n":{"x_min":0,"x_max":565,"ha":565,"o":"m 206 416 l 206 132 q 206 93 213 61 q 220 28 234 0 l 37 0 q 51 28 58 61 q 65 94 65 132 l 65 394 q 65 432 58 464 q 51 497 37 525 l 206 525 l 206 435 q 225 455 243 475 q 261 495 279 516 q 298 524 318 528 q 337 532 358 532 q 389 532 418 520 q 448 507 465 487 q 482 467 489 442 q 496 417 496 362 l 496 132 q 496 93 503 61 q 510 28 524 0 l 327 0 q 341 28 348 61 q 355 94 355 132 l 355 326 q 355 379 335 403 q 314 427 270 427 q 255 427 239 424 q 222 421 206 416 z"},"h":{"x_min":0,"x_max":562,"ha":562,"o":"m 205 416 l 205 132 q 205 93 212 61 q 219 28 233 0 l 36 0 q 50 28 57 61 q 64 94 64 132 l 64 592 q 64 630 57 663 q 50 696 36 724 q 86 729 134 737 q 181 746 228 757 q 217 716 211 666 q 205 615 205 557 l 205 435 q 224 455 242 475 q 260 495 278 516 q 297 524 316 528 q 335 532 356 532 q 388 532 417 520 q 447 507 464 487 q 480 468 487 444 q 494 419 494 362 l 494 132 q 494 93 501 61 q 508 28 522 0 l 325 0 q 339 28 346 61 q 353 94 353 132 l 353 326 q 353 379 333 403 q 313 427 269 427 q 254 427 238 424 q 221 421 205 416 z"},"z":{"x_min":0,"x_max":458,"ha":458,"o":"m 19 0 l 240 442 q 229 443 217 444 q 205 445 193 445 q 149 445 112 433 q 74 421 40 396 l 69 525 l 432 525 l 211 83 l 231 83 q 283 83 331 94 q 378 104 421 125 l 392 0 z"},"B":{"x_min":0,"x_max":597,"ha":597,"o":"m 248 392 l 248 100 l 260 100 q 322 100 358 135 q 394 170 394 230 q 394 285 356 327 q 319 369 248 392 z m 248 409 q 309 421 343 457 q 377 493 377 543 q 377 594 344 623 q 311 651 248 655 z m 188 757 l 236 757 q 312 757 351 751 q 389 745 416 731 q 466 706 496 664 q 525 622 525 574 q 525 528 499 486 q 473 443 421 405 q 489 360 521 314 q 553 267 553 213 q 553 120 473 60 q 392 0 262 0 l 58 0 q 74 42 82 90 q 90 137 90 197 l 90 560 q 90 620 82 668 q 74 715 58 757 z"},"K":{"x_min":0,"x_max":698,"ha":698,"o":"m 58 0 q 74 42 82 90 q 90 137 90 197 l 90 560 q 90 620 82 668 q 74 715 58 757 l 280 757 q 264 715 256 668 q 248 620 248 560 l 248 414 l 440 676 q 455 696 462 714 q 469 731 469 748 q 469 749 469 752 q 468 756 468 757 l 716 757 q 667 721 634 691 q 602 661 581 634 l 416 419 l 640 101 q 655 80 676 55 q 697 30 727 0 l 479 0 q 480 11 480 16 q 481 21 481 26 q 481 46 474 65 q 467 84 450 109 l 248 401 l 248 197 q 248 137 256 90 q 264 42 280 0 z"},"R":{"x_min":0,"x_max":630,"ha":630,"o":"m 248 359 q 314 375 349 419 q 385 462 385 525 q 385 581 350 615 q 315 649 248 660 z m 248 343 l 248 197 q 248 137 256 90 q 264 42 280 0 l 58 0 q 74 42 82 90 q 90 137 90 197 l 90 560 q 90 620 82 668 q 74 715 58 757 l 225 757 q 311 757 363 743 q 415 729 457 698 q 501 666 525 623 q 548 580 548 532 q 548 474 514 427 q 480 380 415 348 q 456 259 518 172 q 580 85 662 0 l 532 0 q 499 0 423 91 q 347 182 248 343 z"},"T":{"x_min":0,"x_max":597,"ha":597,"o":"m 188 0 q 205 42 212 90 q 220 137 220 197 l 220 653 q 163 649 108 633 q 54 617 0 588 l 45 757 l 603 757 l 543 607 q 507 629 466 640 q 426 651 378 653 l 378 197 q 378 137 386 90 q 394 42 410 0 z"},"P":{"x_min":0,"x_max":560,"ha":560,"o":"m 223 757 q 378 757 456 704 q 534 650 534 544 q 534 448 469 390 q 404 333 294 333 q 283 333 272 334 q 260 334 248 336 l 248 197 q 248 137 256 90 q 264 42 280 0 l 58 0 q 74 42 82 90 q 90 137 90 197 l 90 560 q 90 620 82 668 q 74 715 58 757 z m 248 367 q 309 374 343 415 q 377 456 377 521 q 377 585 345 620 q 314 655 257 655 l 248 655 z"},"|":{"x_min":0,"x_max":500,"ha":500,"o":"m 200 764 l 301 764 l 301 -236 l 200 -236 z"},"t":{"x_min":0,"x_max":359,"ha":359,"o":"m 209 444 l 209 203 q 209 133 222 116 q 235 99 276 99 q 291 99 311 104 q 332 109 355 118 l 314 10 q 279 1 246 -3 q 212 -8 181 -8 q 117 -8 92 22 q 68 52 68 167 l 68 444 l 8 444 q 59 499 109 554 q 159 609 209 665 l 209 519 l 329 519 l 329 444 z"},"M":{"x_min":0,"x_max":919,"ha":919,"o":"m 242 197 q 242 137 250 90 q 258 42 274 0 l 61 0 q 78 43 86 91 q 94 139 94 197 l 94 673 l 7 757 l 233 757 q 236 739 244 722 q 251 706 265 687 l 460 428 l 650 678 q 664 695 672 715 q 680 734 684 757 l 881 757 q 853 723 838 684 q 824 645 824 600 l 824 197 q 824 139 832 91 q 840 43 857 0 l 644 0 q 661 42 668 90 q 676 137 676 197 l 676 503 l 460 232 l 242 503 z"},"g":{"x_min":0,"x_max":514,"ha":514,"o":"m 251 240 q 282 240 299 263 q 316 285 316 326 q 316 384 292 423 q 268 463 235 463 q 204 463 187 440 q 170 418 170 377 q 170 319 194 280 q 218 240 251 240 z m 162 30 q 154 15 150 3 q 146 -9 146 -19 q 146 -49 171 -64 q 196 -79 246 -79 q 303 -79 331 -64 q 359 -48 359 -17 q 359 8 338 20 q 316 31 269 31 q 260 31 233 30 q 207 30 188 30 z m 153 182 q 99 198 71 239 q 43 280 43 342 q 43 428 100 479 q 157 531 252 531 q 288 531 319 522 q 350 513 379 493 l 522 493 l 518 416 l 428 416 q 435 393 438 374 q 442 355 442 340 q 442 266 385 219 q 329 173 237 173 q 222 173 206 174 q 190 176 174 179 q 166 170 163 164 q 160 158 160 151 q 160 133 183 124 q 205 115 250 115 q 263 115 288 116 q 313 117 325 117 q 407 117 446 89 q 484 61 484 1 q 484 -34 465 -66 q 447 -97 410 -124 q 378 -148 343 -158 q 307 -168 233 -168 q 183 -168 152 -167 q 122 -166 101 -163 q 68 -148 52 -128 q 35 -107 35 -80 l 35 -69 q 64 -43 91 -18 q 117 7 141 33 q 89 40 63 57 q 38 73 38 101 q 38 125 92 151 q 130 168 153 182 z"},"j":{"x_min":0,"x_max":278,"ha":278,"o":"m 206 92 q 206 5 184 -55 q 163 -116 114 -167 l -9 -167 q 31 -124 48 -72 q 65 -20 65 69 l 65 394 q 65 432 58 464 q 51 497 37 525 l 234 525 q 220 497 213 464 q 206 432 206 394 z m 51 666 q 51 701 75 726 q 100 750 136 750 q 172 750 196 726 q 220 702 220 666 q 220 630 196 606 q 171 581 136 581 q 101 581 76 606 q 51 631 51 666 z"},"i":{"x_min":0,"x_max":272,"ha":272,"o":"m 65 394 q 65 432 58 464 q 51 497 37 525 l 234 525 q 220 497 213 464 q 206 432 206 394 l 206 132 q 206 93 213 61 q 220 28 234 0 l 37 0 q 51 28 58 61 q 65 94 65 132 z m 51 666 q 51 701 75 726 q 100 750 136 750 q 172 750 196 726 q 220 702 220 666 q 220 630 196 606 q 171 581 136 581 q 101 581 76 606 q 51 631 51 666 z"},"y":{"x_min":0,"x_max":507,"ha":507,"o":"m 203 525 q 198 508 195 495 q 193 481 193 471 q 193 456 196 441 q 199 426 205 409 l 272 227 l 337 416 q 344 435 347 453 q 350 472 350 490 q 350 499 349 507 q 349 516 347 525 l 512 525 q 493 497 476 461 q 459 425 442 377 l 354 138 q 298 -12 251 -88 q 204 -163 163 -167 l 20 -167 q 84 -112 129 -53 q 173 6 197 70 l 63 394 q 41 445 25 475 q 9 504 -8 525 z"},"@":{"x_min":0,"x_max":1000,"ha":1000,"o":"m 570 133 q 543 92 508 73 q 473 53 425 53 q 348 53 307 95 q 267 137 267 219 q 267 336 335 415 q 403 494 503 494 q 542 494 571 478 q 600 462 618 430 l 644 478 l 731 478 l 659 186 q 658 181 657 175 q 656 169 656 166 q 656 149 667 140 q 679 132 702 132 q 721 132 742 142 q 763 151 781 169 q 823 208 844 260 q 866 312 866 375 q 866 492 776 568 q 685 643 542 643 q 473 643 414 626 q 354 610 306 577 q 223 521 178 438 q 134 354 134 255 q 134 105 235 15 q 336 -74 505 -74 q 584 -74 659 -50 q 735 -26 800 19 l 840 -38 q 765 -94 681 -123 q 598 -151 507 -151 q 413 -151 334 -127 q 256 -104 195 -57 q 119 2 82 79 q 44 156 44 254 q 44 335 70 409 q 95 483 145 544 q 217 632 319 678 q 420 723 545 723 q 627 723 700 701 q 772 679 826 638 q 892 587 925 521 q 957 456 957 373 q 957 292 925 224 q 893 156 833 108 q 799 81 759 66 q 718 52 675 52 q 623 52 597 72 q 571 93 570 133 z m 594 342 q 588 381 566 402 q 544 423 509 423 q 453 423 412 362 q 371 302 371 217 q 371 172 391 148 q 411 125 448 125 q 489 125 522 156 q 556 187 568 236 z"},".":{"x_min":0,"x_max":317,"ha":317,"o":"m 67 86 q 67 123 94 150 q 121 177 159 177 q 197 177 224 150 q 250 124 250 86 q 250 47 224 20 q 197 -7 159 -7 q 121 -7 94 20 q 67 47 67 86 z"},"p":{"x_min":0,"x_max":574,"ha":574,"o":"m 208 418 l 208 108 q 226 101 240 98 q 254 95 267 95 q 326 95 361 140 q 395 185 395 263 q 395 344 363 387 q 331 431 272 431 q 259 431 244 428 q 229 425 208 418 z m 208 -35 q 208 -73 215 -106 q 222 -139 236 -167 l 39 -167 q 53 -139 60 -106 q 67 -73 67 -35 l 67 394 q 67 433 60 465 q 53 497 39 525 l 208 525 l 208 438 q 257 487 290 506 q 324 525 360 525 q 438 525 489 457 q 539 390 539 281 q 539 156 487 85 q 435 14 344 14 q 311 14 279 26 q 246 38 208 65 z"},"X":{"x_min":0,"x_max":660,"ha":660,"o":"m 243 369 l 80 637 q 64 663 44 692 q 23 722 -3 757 l 222 757 q 222 755 222 751 q 221 747 221 745 q 221 729 226 712 q 231 696 241 677 l 336 503 l 427 680 q 436 695 440 713 q 444 730 444 750 l 444 757 l 655 757 q 619 719 591 684 q 563 649 543 616 l 410 397 l 578 123 q 604 81 625 52 q 646 22 666 0 l 436 0 l 436 8 q 436 27 427 52 q 418 77 399 111 l 318 256 l 251 126 q 235 95 226 67 q 217 39 217 23 q 217 18 218 13 q 218 7 220 0 l 2 0 q 37 39 65 77 q 94 115 115 151 z"},"*":{"x_min":0,"x_max":583,"ha":583,"o":"m 222 616 l 291 764 l 359 619 l 518 633 l 426 503 l 518 371 l 358 383 l 291 241 l 222 385 l 65 371 l 156 498 l 65 633 z m 224 503 q 224 476 244 455 q 264 435 291 435 q 319 435 339 455 q 359 475 359 503 q 359 530 339 550 q 319 570 291 570 q 265 570 244 550 q 224 530 224 503 z"},"Y":{"x_min":0,"x_max":587,"ha":587,"o":"m 384 197 q 384 137 392 90 q 399 42 416 0 l 194 0 q 210 42 218 90 q 226 137 226 197 l 226 354 l 59 631 q 39 664 16 696 q -6 727 -31 757 l 190 757 q 189 754 189 750 q 189 747 189 740 q 189 726 192 714 q 195 701 200 692 l 313 497 l 407 678 q 414 692 417 706 q 421 720 421 734 q 421 741 419 754 q 419 756 419 757 l 621 757 q 593 729 569 696 q 544 664 524 628 l 384 385 z"},"c":{"x_min":0,"x_max":477,"ha":477,"o":"m 438 388 q 407 415 376 428 q 345 441 311 441 q 247 441 208 395 q 169 348 169 270 q 169 191 214 146 q 259 102 339 102 q 367 102 396 109 q 424 116 455 130 l 392 6 q 366 0 339 -4 q 313 -7 285 -7 q 170 -7 100 62 q 30 131 30 243 q 30 375 114 454 q 198 533 337 533 q 362 533 392 530 q 422 526 455 519 z"},"!":{"x_min":0,"x_max":352,"ha":352,"o":"m 104 617 q 104 665 95 697 q 87 729 68 757 l 283 757 q 264 729 255 697 q 247 666 247 617 l 247 432 q 247 329 231 284 q 215 240 175 214 q 136 239 120 283 q 104 327 104 432 z m 84 86 q 84 123 111 150 q 138 177 176 177 q 214 177 241 150 q 267 124 267 86 q 267 47 240 20 q 214 -7 176 -7 q 138 -7 111 20 q 84 47 84 86 z"},"/":{"x_min":0,"x_max":329,"ha":329,"o":"m -68 -93 q -51 -68 -35 -36 q -20 -4 -8 32 l 192 645 q 201 673 206 695 q 210 717 210 737 q 210 745 210 749 q 209 753 209 757 l 355 757 q 338 732 323 700 q 307 668 295 632 l 95 19 q 85 -10 81 -32 q 77 -55 77 -74 q 77 -82 77 -86 q 78 -90 78 -93 z"},"[":{"x_min":0,"x_max":424,"ha":424,"o":"m 132 -144 l 132 757 l 365 757 l 365 669 l 271 669 l 271 -56 l 365 -56 l 365 -144 z"},"6":{"x_min":0,"x_max":634,"ha":634,"o":"m 522 757 q 490 720 460 680 q 430 640 404 598 l 307 445 q 325 449 337 450 q 349 452 359 452 q 453 452 511 392 q 570 333 570 236 q 570 200 561 168 q 553 135 536 108 q 503 56 444 24 q 385 -7 318 -7 q 204 -7 130 59 q 56 125 56 225 q 56 327 216 559 q 240 593 252 611 q 255 615 260 623 q 315 703 315 741 q 315 748 315 751 q 314 754 314 757 z m 313 115 q 362 115 394 147 q 425 180 425 231 q 425 281 395 313 q 365 344 317 344 q 267 344 235 310 q 203 276 203 224 q 203 177 234 146 q 265 115 313 115 z"},"r":{"x_min":0,"x_max":417,"ha":417,"o":"m 206 420 q 247 487 279 510 q 311 532 358 532 q 374 532 390 529 q 407 525 427 517 l 398 382 q 376 406 351 418 q 325 430 295 430 q 268 430 246 420 q 224 411 206 391 l 206 132 q 206 93 213 61 q 220 28 234 0 l 37 0 q 51 28 58 61 q 65 94 65 132 l 65 394 q 65 432 58 464 q 51 497 37 525 l 206 525 z"},"2":{"x_min":0,"x_max":634,"ha":634,"o":"m -4 0 l 62 82 q 390 488 390 567 q 390 604 366 626 q 342 649 302 649 q 256 649 230 619 q 204 589 204 537 q 204 518 207 501 q 209 484 214 468 l 74 530 q 73 535 73 539 q 73 543 73 553 q 73 648 138 706 q 202 764 308 764 q 411 764 474 710 q 538 656 538 569 q 538 522 513 471 q 489 419 422 335 l 253 120 l 367 120 q 439 120 488 129 q 537 137 571 156 l 532 0 z"},"{":{"x_min":0,"x_max":500,"ha":500,"o":"m 431 721 l 431 619 q 427 619 419 620 q 411 620 408 620 q 359 620 342 601 q 324 583 324 522 l 324 405 q 324 333 302 302 q 280 272 223 259 q 280 246 302 216 q 324 186 324 114 l 324 -4 q 324 -64 341 -83 q 358 -101 408 -101 q 411 -101 419 -101 q 427 -100 431 -100 l 431 -202 q 424 -202 412 -203 q 400 -203 394 -203 q 345 -203 312 -197 q 280 -191 257 -179 q 229 -163 218 -135 q 206 -106 206 -37 l 206 86 q 206 153 181 181 q 156 209 97 209 q 94 209 87 208 q 81 208 77 208 l 77 310 q 81 310 87 310 q 94 309 97 309 q 156 309 181 337 q 206 366 206 433 l 206 555 q 206 625 218 653 q 229 682 257 698 q 280 710 312 716 q 345 722 394 722 q 400 722 412 722 q 424 721 431 721 z"},"9":{"x_min":0,"x_max":634,"ha":634,"o":"m 306 647 q 258 647 227 615 q 196 583 196 532 q 196 481 225 450 q 255 419 303 419 q 354 419 386 453 q 418 487 418 539 q 418 586 387 617 q 355 647 306 647 z m 105 0 q 143 44 173 84 q 202 125 223 159 l 319 322 q 306 318 294 317 q 283 315 271 315 q 180 315 122 374 q 65 432 65 526 q 65 630 134 697 q 203 764 309 764 q 422 764 490 703 q 557 642 557 540 q 557 440 438 248 q 418 215 408 198 q 399 184 383 158 q 324 63 324 23 q 324 17 325 11 q 326 6 327 0 z"}," ":{"x_min":0,"x_max":317,"ha":317,"o":""},"I":{"x_min":0,"x_max":338,"ha":338,"o":"m 58 0 q 74 42 82 90 q 90 137 90 197 l 90 560 q 90 620 82 668 q 74 715 58 757 l 280 757 q 264 715 256 668 q 248 620 248 560 l 248 197 q 248 137 256 90 q 264 42 280 0 z"},"H":{"x_min":0,"x_max":759,"ha":759,"o":"m 512 449 l 512 560 q 512 618 504 666 q 496 714 479 757 l 701 757 q 685 715 677 668 q 669 620 669 560 l 669 197 q 669 137 677 90 q 685 42 701 0 l 479 0 q 496 43 504 91 q 512 139 512 197 l 512 324 l 248 324 l 248 197 q 248 137 256 90 q 264 42 280 0 l 58 0 q 74 42 82 90 q 90 137 90 197 l 90 560 q 90 620 82 668 q 74 715 58 757 l 280 757 q 264 715 256 668 q 248 620 248 560 l 248 449 z"},"4":{"x_min":0,"x_max":634,"ha":634,"o":"m 42 260 l 42 372 q 65 393 88 419 q 111 446 134 478 l 246 635 q 269 667 288 698 q 306 728 320 757 l 487 757 q 481 729 478 697 q 475 666 475 632 l 475 373 q 509 373 539 376 q 568 380 595 387 l 595 246 q 568 253 541 256 q 514 260 486 260 l 475 260 l 475 197 q 475 137 483 90 q 491 42 507 0 l 302 0 q 319 43 327 91 q 335 139 335 197 l 335 260 z m 177 373 l 335 373 l 335 601 z"},"~":{"x_min":0,"x_max":833,"ha":833,"o":"m 747 392 l 747 284 q 696 250 651 233 q 606 217 562 217 q 540 217 517 221 q 495 225 472 232 q 460 236 438 244 q 331 281 275 281 q 233 281 188 262 q 143 244 87 204 l 87 312 q 139 347 187 365 q 234 382 276 382 q 333 382 418 354 l 420 353 q 429 350 447 344 q 522 317 564 317 q 605 317 649 335 q 693 353 747 392 z"},"D":{"x_min":0,"x_max":690,"ha":690,"o":"m 58 0 q 74 42 82 90 q 90 137 90 197 l 90 560 q 90 620 82 668 q 74 715 58 757 l 199 757 q 278 757 337 745 q 397 733 446 708 q 545 657 599 569 q 653 481 653 371 q 653 271 599 186 q 545 100 450 48 q 406 24 349 12 q 292 0 225 0 z m 248 102 q 360 118 423 188 q 487 257 487 363 q 487 472 422 549 q 356 625 248 642 z"},"^":{"x_min":0,"x_max":1000,"ha":1000,"o":"m 438 713 l 561 713 l 796 439 l 681 439 l 500 620 l 318 439 l 203 439 z"},"0":{"x_min":0,"x_max":634,"ha":634,"o":"m 319 124 q 379 124 411 193 q 443 262 443 394 q 443 511 410 573 q 378 635 317 635 q 256 635 224 571 q 191 506 191 387 q 191 263 225 194 q 259 124 319 124 z m 606 380 q 606 291 582 219 q 559 146 511 89 q 472 42 421 18 q 371 -7 315 -7 q 257 -7 206 19 q 155 44 118 93 q 74 149 52 221 q 30 292 30 376 q 30 468 55 543 q 81 619 131 675 q 169 718 219 741 q 269 764 322 764 q 362 764 401 750 q 439 736 475 708 q 539 657 573 573 q 606 490 606 380 z"},"F":{"x_min":0,"x_max":525,"ha":525,"o":"m 503 757 l 432 609 q 397 625 352 634 q 307 642 248 643 l 248 440 l 482 440 l 412 300 q 382 318 349 326 q 315 335 275 335 q 264 335 258 335 q 252 334 248 334 l 248 197 q 248 137 256 90 q 264 42 280 0 l 58 0 q 74 42 82 90 q 90 137 90 197 l 90 560 q 90 620 82 668 q 74 715 58 757 z"},"`":{"x_min":0,"x_max":500,"ha":500,"o":"m 101 767 l 241 767 l 335 587 l 260 587 z"},"k":{"x_min":0,"x_max":537,"ha":537,"o":"m 200 296 l 331 458 q 344 474 351 490 q 357 507 358 525 l 545 525 q 522 506 503 487 q 483 468 467 447 l 345 297 l 475 85 q 486 65 505 44 q 523 23 549 0 l 341 0 q 341 2 342 5 q 342 8 342 14 q 342 30 337 45 q 333 60 324 75 l 200 281 l 200 132 q 200 93 207 61 q 214 28 228 0 l 36 0 q 50 28 57 61 q 64 94 64 132 l 64 592 q 64 630 57 663 q 50 696 36 724 q 84 729 131 738 q 178 746 224 757 q 212 714 206 664 q 200 613 200 557 z"},"u":{"x_min":0,"x_max":565,"ha":565,"o":"m 352 110 l 352 394 q 352 433 345 465 q 339 498 325 525 l 521 525 q 507 498 501 465 q 494 433 494 394 l 494 132 q 494 92 501 60 q 507 27 521 0 l 352 0 l 352 90 q 338 76 321 57 q 303 37 279 9 q 260 1 241 -3 q 222 -7 201 -7 q 170 -7 141 5 q 111 18 94 38 q 77 58 70 82 q 63 106 63 163 l 63 394 q 63 432 56 464 q 49 497 35 525 l 232 525 q 218 497 211 464 q 204 432 204 394 l 204 199 q 204 146 224 122 q 245 98 289 98 q 303 98 318 101 q 333 104 352 110 z"},"]":{"x_min":0,"x_max":424,"ha":424,"o":"m 292 757 l 292 -144 l 59 -144 l 59 -56 l 152 -56 l 152 669 l 59 669 l 59 757 z"},"U":{"x_min":0,"x_max":765,"ha":765,"o":"m 525 74 q 479 34 428 14 q 376 -7 323 -7 q 266 -7 218 17 q 170 41 136 87 q 108 125 96 170 q 84 214 84 309 l 84 560 q 84 620 76 668 q 68 715 52 757 l 274 757 q 257 714 249 666 q 241 618 241 560 l 241 289 q 241 196 270 156 q 298 115 361 115 q 397 115 436 130 q 474 146 516 176 l 516 560 q 516 620 508 668 q 500 715 484 757 l 706 757 q 689 715 682 668 q 674 620 674 560 l 674 197 q 674 137 682 90 q 689 42 706 0 l 525 0 z"},"o":{"x_min":0,"x_max":584,"ha":584,"o":"m 448 57 q 401 24 359 9 q 316 -7 277 -7 q 171 -7 103 68 q 34 143 34 261 q 34 323 61 379 q 87 435 136 474 q 172 503 214 518 q 256 533 301 533 q 411 533 480 461 q 550 389 550 274 q 550 206 525 152 q 500 98 448 57 z m 338 79 q 371 104 390 150 q 409 195 409 249 q 409 333 369 390 q 330 448 276 448 q 233 448 204 402 q 175 356 175 284 q 175 193 218 136 q 261 79 329 79 z"},"N":{"x_min":0,"x_max":793,"ha":793,"o":"m 231 471 l 231 197 q 231 139 239 91 q 247 43 264 0 l 61 0 q 78 43 86 91 q 94 139 94 197 l 94 639 l -9 757 l 223 757 q 229 728 240 700 q 252 673 271 646 l 565 225 l 565 560 q 565 618 557 666 q 549 714 532 757 l 735 757 q 719 715 711 668 q 703 620 703 560 l 703 169 q 703 124 708 82 q 714 40 725 0 l 550 0 q 542 18 531 37 q 520 57 497 90 z"},"+":{"x_min":0,"x_max":833,"ha":833,"o":"m 367 596 l 466 596 l 466 347 l 709 347 l 709 250 l 466 250 l 466 0 l 367 0 l 367 250 l 124 250 l 124 347 l 367 347 z"},"G":{"x_min":0,"x_max":764,"ha":764,"o":"m 703 41 q 637 17 573 5 q 509 -7 444 -7 q 257 -7 147 95 q 36 197 36 367 q 36 451 67 524 q 98 598 156 654 q 214 710 292 738 q 370 765 469 765 q 506 765 550 760 q 594 756 644 747 l 641 567 q 600 606 551 625 q 502 644 442 644 q 332 644 268 574 q 205 504 205 382 q 205 254 276 181 q 347 108 472 108 q 486 108 503 110 q 520 112 541 116 l 541 236 q 541 281 532 316 q 522 351 503 378 l 716 378 q 702 352 696 316 q 689 281 689 231 l 689 135 q 689 107 692 84 q 696 61 703 41 z"},"q":{"x_min":0,"x_max":574,"ha":574,"o":"m 528 519 q 514 491 507 458 q 500 425 500 387 l 500 -35 q 500 -73 507 -106 q 514 -139 528 -167 l 331 -167 q 345 -139 352 -106 q 359 -73 359 -35 l 359 114 l 278 26 q 264 20 249 17 q 233 14 217 14 q 134 14 82 74 q 30 135 30 233 q 30 372 124 453 q 218 533 382 533 q 415 533 451 530 q 487 526 528 519 z m 359 130 l 359 438 q 344 442 330 445 q 316 447 302 447 q 240 447 207 399 q 173 352 173 264 q 173 193 203 153 q 233 113 287 113 q 303 113 321 117 q 339 122 359 130 z"},"d":{"x_min":0,"x_max":574,"ha":574,"o":"m 358 592 q 358 630 351 663 q 344 696 330 724 q 381 729 429 737 q 477 746 523 757 q 511 714 505 664 q 499 613 499 557 l 499 132 q 499 95 506 62 q 513 29 528 0 l 358 0 l 358 84 q 317 39 281 20 q 245 0 204 0 q 127 0 79 62 q 31 124 31 224 q 31 353 108 437 q 185 521 300 521 q 314 521 329 519 q 343 518 358 514 z m 358 100 l 358 438 q 343 446 327 450 q 311 454 292 454 q 273 454 256 448 q 238 441 220 428 q 197 390 186 346 q 174 303 174 254 q 174 176 206 133 q 238 90 296 90 q 309 90 325 93 q 340 95 358 100 z"},"1":{"x_min":0,"x_max":634,"ha":634,"o":"m 252 544 l 133 544 l 395 764 l 395 197 q 395 137 403 90 q 411 42 427 0 l 219 0 q 236 43 244 91 q 252 139 252 197 z"},"5":{"x_min":0,"x_max":634,"ha":634,"o":"m 269 472 q 275 473 281 473 q 288 473 300 473 q 411 473 479 410 q 546 346 546 242 q 546 128 473 60 q 399 -8 276 -8 q 208 -8 150 11 q 91 29 42 67 l 123 221 q 145 166 184 136 q 223 107 276 107 q 332 107 365 142 q 399 177 399 235 q 399 299 355 336 q 311 372 233 372 q 208 372 184 368 q 161 364 138 356 l 138 623 q 138 660 135 693 q 132 726 126 757 l 551 757 l 504 597 q 479 619 431 630 q 382 641 309 641 q 303 641 290 641 q 276 640 269 640 z"}}}
